<?xml version="1.0" standalone="no"?>
<!DOCTYPE svg PUBLIC "-//W3C//DTD SVG 20010904//EN"
 "http://www.w3.org/TR/2001/REC-SVG-20010904/DTD/svg10.dtd">
<svg version="1.0" xmlns="http://www.w3.org/2000/svg"
 width="300.000000pt" height="168.000000pt" viewBox="0 0 300.000000 168.000000"
 preserveAspectRatio="xMidYMid meet">

<g transform="translate(0.000000,168.000000) scale(0.100000,-0.100000)"
fill="#000000" stroke="none">
<path d="M1354 1598 c-9 -44 -11 -178 -1 -178 4 0 8 7 8 15 3 32 4 35 14 33
12 -4 7 -52 -6 -56 -14 -5 -11 -22 4 -22 15 0 17 8 15 78 0 26 -1 73 0 105 0
64 -21 80 -34 25z"/>
<path d="M1405 1570 c3 -5 11 -10 16 -10 6 0 7 5 4 10 -3 6 -11 10 -16 10 -6
0 -7 -4 -4 -10z"/>
<path d="M1927 1529 c7 -7 15 -10 18 -7 3 3 -2 9 -12 12 -14 6 -15 5 -6 -5z"/>
<path d="M1975 1490 c9 -29 8 -91 -2 -117 -4 -12 -7 -43 -5 -68 4 -40 7 -45
28 -45 13 0 24 -6 24 -12 0 -7 7 -4 16 7 8 11 21 19 29 17 8 -2 13 5 12 18 -1
21 -21 27 -32 10 -12 -19 -25 -10 -20 15 3 14 7 36 10 49 3 14 14 28 25 31 14
4 20 15 20 36 0 34 -17 39 -22 7 -2 -15 -10 -23 -23 -23 -16 0 -21 -8 -23 -42
-3 -42 -14 -54 -27 -32 -4 6 -2 30 5 54 13 46 6 115 -11 115 -6 0 -8 -9 -4
-20z"/>
<path d="M1692 1458 c-29 -17 -51 -33 -48 -36 5 -4 106 56 106 64 0 6 0 6 -58
-28z"/>
<path d="M1414 1355 c-11 -8 -14 -15 -8 -15 5 0 14 4 20 10 6 6 18 5 34 -3 21
-11 31 -11 55 0 l30 13 -31 -5 c-17 -3 -42 -1 -56 4 -19 7 -31 6 -44 -4z"/>
<path d="M1570 1340 c0 -6 7 -10 15 -10 8 0 15 2 15 4 0 2 -7 6 -15 10 -8 3
-15 1 -15 -4z"/>
<path d="M1610 1332 c0 -5 55 -24 121 -42 67 -17 129 -34 138 -37 13 -5 14 -3
4 7 -12 13 -22 16 -68 24 -40 6 -90 19 -100 24 -5 4 -21 8 -34 10 -14 2 -33 8
-43 13 -10 5 -18 6 -18 1z"/>
<path d="M1350 1300 c-18 -16 -30 -30 -26 -30 5 0 24 14 43 30 18 17 30 30 25
30 -5 0 -24 -13 -42 -30z"/>
<path d="M2250 1235 c-41 -25 -71 -45 -66 -45 12 0 146 79 146 85 0 8 -1 7
-80 -40z"/>
<path d="M1289 1243 c-13 -15 -12 -15 9 -4 23 12 28 21 13 21 -5 0 -15 -7 -22
-17z"/>
<path d="M977 1213 c-3 -5 -2 -15 2 -22 7 -10 10 -10 16 -1 4 6 3 16 -3 22 -5
5 -12 6 -15 1z"/>
<path d="M1230 1190 c-19 -16 -30 -30 -24 -30 5 0 23 14 39 30 36 38 30 38
-15 0z"/>
<path d="M1912 1204 c10 -10 20 -16 22 -13 3 3 -5 11 -17 18 -21 13 -21 12 -5
-5z"/>
<path d="M1950 1186 c0 -3 9 -10 20 -16 11 -6 20 -8 20 -6 0 3 -9 10 -20 16
-11 6 -20 8 -20 6z"/>
<path d="M1755 1160 c3 -5 8 -10 11 -10 2 0 4 5 4 10 0 6 -5 10 -11 10 -5 0
-7 -4 -4 -10z"/>
<path d="M1135 1104 c-27 -26 -41 -40 -30 -33 25 18 92 79 85 79 -3 0 -27 -21
-55 -46z"/>
<path d="M1419 1119 c-15 -15 -19 -28 -15 -45 5 -20 2 -26 -19 -34 -14 -5 -25
-14 -25 -20 0 -15 15 -12 55 11 38 23 56 20 35 -6 -20 -24 2 -62 40 -70 45
-10 98 2 110 25 14 27 -3 58 -35 66 -16 4 -25 13 -25 25 0 29 -49 37 -69 12
-18 -21 -41 -20 -41 2 0 8 9 20 20 28 18 12 19 15 5 21 -9 3 -24 -3 -36 -15z"/>
<path d="M2055 1130 c-3 -5 1 -10 9 -10 8 0 18 5 21 10 3 6 -1 10 -9 10 -8 0
-18 -4 -21 -10z"/>
<path d="M1317 1114 c-4 -4 -4 -10 -1 -15 6 -10 34 0 34 12 0 10 -24 12 -33 3z"/>
<path d="M1832 1103 c5 -25 28 -28 28 -4 0 12 -6 21 -16 21 -9 0 -14 -7 -12
-17z"/>
<path d="M975 1100 c-3 -5 -1 -10 4 -10 6 0 11 5 11 10 0 6 -2 10 -4 10 -3 0
-8 -4 -11 -10z"/>
<path d="M952 1047 c-7 -18 -12 -41 -12 -51 0 -9 -4 -15 -9 -11 -5 3 -12 1
-15 -4 -7 -11 22 -23 35 -15 5 3 9 18 9 34 0 32 15 48 23 26 3 -8 1 -16 -5
-18 -6 -2 -8 -10 -4 -16 15 -25 26 -10 26 38 0 41 -3 50 -18 50 -11 0 -22 -12
-30 -33z"/>
<path d="M1816 1046 c-3 -11 -5 -32 -5 -46 l1 -25 8 25 c6 17 8 0 7 -54 -1
-56 2 -81 11 -83 7 -3 10 1 7 9 -3 7 -1 27 4 43 l9 30 1 -32 c1 -28 5 -33 24
-32 12 0 16 3 10 6 -18 7 -18 161 0 160 28 -1 47 3 47 11 0 4 -27 8 -59 8 -53
1 -60 -1 -65 -20z"/>
<path d="M1330 999 c0 -6 -8 -9 -18 -7 -19 5 -42 -13 -42 -33 0 -6 7 -8 16 -5
14 5 15 1 10 -31 l-6 -38 16 29 c12 22 18 26 25 15 10 -16 12 -7 9 34 -1 15 4
27 10 27 6 0 8 5 5 10 -8 13 -25 13 -25 -1z"/>
<path d="M2152 985 c10 -10 -39 -48 -51 -40 -6 3 -17 -5 -26 -18 -19 -30 -13
-116 10 -134 45 -32 125 49 125 127 0 35 -4 42 -32 56 -18 9 -30 13 -26 9z
m36 -59 c7 -55 -36 -116 -80 -116 -43 0 -29 92 20 131 34 26 56 21 60 -15z"/>
<path d="M780 976 c0 -3 14 -12 30 -21 17 -9 30 -13 30 -11 0 3 -13 12 -30 21
-16 9 -30 13 -30 11z"/>
<path d="M1387 887 c-25 -23 -61 -54 -78 -69 -18 -15 -31 -30 -28 -32 2 -2 38
26 79 64 73 67 75 68 102 54 34 -18 49 -18 23 -1 -41 28 -52 26 -98 -16z"/>
<path d="M980 911 c0 -5 20 -25 45 -45 25 -21 45 -34 45 -29 -1 4 -13 17 -27
28 -14 11 -34 28 -44 38 -11 9 -19 13 -19 8z"/>
<path d="M1516 912 c-2 -4 4 -8 14 -8 10 0 16 4 14 8 -3 4 -9 8 -14 8 -5 0
-11 -4 -14 -8z"/>
<path d="M1655 910 c3 -5 10 -10 16 -10 5 0 9 5 9 10 0 6 -7 10 -16 10 -8 0
-12 -4 -9 -10z"/>
<path d="M1566 903 c-4 -4 13 -13 36 -20 31 -9 45 -9 53 -1 7 8 6 9 -3 4 -7
-4 -19 -2 -27 4 -8 7 -15 9 -15 6 0 -4 -8 -2 -19 3 -10 6 -21 7 -25 4z"/>
<path d="M1710 856 c0 -2 9 -6 20 -9 11 -3 20 -1 20 4 0 5 -9 9 -20 9 -11 0
-20 -2 -20 -4z"/>
<path d="M1766 851 c-4 -5 20 -17 51 -26 32 -9 66 -18 76 -21 9 -3 17 -2 17 3
0 5 -26 14 -57 22 -32 7 -63 17 -70 22 -7 6 -13 6 -17 0z"/>
<path d="M1135 768 l57 -52 -47 -43 c-27 -24 -51 -43 -54 -43 -3 1 -17 7 -31
15 -48 27 -56 9 -14 -30 33 -30 54 -32 54 -5 0 26 14 25 33 -2 l16 -23 0 28
c1 15 -4 27 -11 27 -7 0 4 16 25 36 32 32 39 35 55 23 9 -7 -14 17 -52 54 -38
37 -73 67 -78 67 -5 0 16 -23 47 -52z"/>
<path d="M1649 808 c0 -7 -3 -45 -7 -84 -6 -56 -5 -71 5 -67 8 3 13 24 14 52
l1 46 8 -40 c5 -22 6 -48 3 -59 -3 -12 -1 -16 6 -12 6 4 11 37 11 77 0 54 -3
68 -12 63 -10 -6 -10 -4 0 8 10 13 10 17 -4 22 -22 8 -24 8 -25 -6z"/>
<path d="M1996 788 c-39 -35 -19 -54 22 -22 17 14 32 30 32 35 0 16 -28 9 -54
-13z"/>
<path d="M1500 766 c0 -3 14 -12 30 -21 17 -9 30 -13 30 -11 0 3 -13 12 -30
21 -16 9 -30 13 -30 11z"/>
<path d="M2170 745 c-19 -14 -30 -25 -24 -25 10 0 73 49 63 50 -3 0 -20 -11
-39 -25z"/>
<path d="M982 744 c16 -8 31 -28 37 -47 7 -25 9 -27 10 -9 1 25 -40 72 -61 72
-7 -1 -1 -7 14 -16z"/>
<path d="M1503 723 c27 -15 44 -29 38 -31 -5 -2 -31 9 -56 23 -37 22 -44 24
-38 9 5 -13 3 -15 -7 -9 -9 6 -11 4 -6 -4 5 -7 15 -10 23 -7 9 4 11 2 7 -6 -5
-8 -2 -9 10 -5 9 4 15 3 12 -2 -3 -5 1 -12 10 -15 9 -4 14 -9 11 -12 -3 -4
-26 5 -51 20 l-45 27 -7 -26 c-3 -14 -4 -32 0 -40 3 -8 2 -15 -3 -15 -5 0 -11
-11 -13 -25 -5 -22 -3 -25 16 -19 11 3 25 10 31 15 14 14 45 11 45 -4 0 -7
-17 -21 -37 -32 -26 -12 -33 -19 -23 -23 8 -3 21 -11 28 -19 21 -21 50 -16 54
10 2 14 10 22 23 23 11 0 32 5 48 12 22 9 27 18 27 47 0 22 -4 34 -10 30 -6
-4 -10 6 -10 22 0 22 2 25 10 13 8 -13 10 -13 10 2 0 24 -11 48 -22 48 -6 0
-5 -6 2 -15 7 -8 8 -15 3 -15 -16 0 -63 25 -63 33 0 5 -4 5 -10 2 -5 -3 -10
-1 -10 4 0 6 -10 11 -22 11 -18 0 -11 -7 25 -27z m54 -63 c-4 -28 -15 -35 -12
-8 3 27 3 28 10 28 3 0 4 -9 2 -20z m-123 -15 c-5 -11 -2 -14 12 -9 17 6 17 5
-1 -9 -11 -9 -27 -16 -35 -17 -12 0 -13 2 -1 9 7 5 11 13 7 19 -5 9 0 13 21
21 1 1 0 -6 -3 -14z m56 0 c0 -12 -19 -12 -23 0 -4 9 -1 12 9 8 7 -3 14 -7 14
-8z m22 -25 c-2 -16 -8 -30 -13 -30 -5 0 -6 7 -4 15 3 8 7 22 10 30 8 25 12
17 7 -15z"/>
<path d="M911 712 c-1 -37 36 -82 66 -82 13 0 8 6 -15 21 -18 12 -35 33 -38
48 -10 45 -12 47 -13 13z"/>
<path d="M2110 710 c-9 -6 -10 -10 -3 -10 6 0 15 5 18 10 8 12 4 12 -15 0z"/>
<path d="M2024 696 c22 -18 52 -21 60 -7 4 5 -3 7 -13 4 -10 -3 -30 0 -42 7
-23 11 -23 10 -5 -4z"/>
<path d="M1850 659 c-135 -35 -145 -38 -138 -45 3 -2 41 5 84 17 43 12 83 22
89 24 33 6 95 26 95 30 0 7 -2 6 -130 -26z"/>
<path d="M1240 676 c0 -2 21 -21 48 -41 l47 -38 -40 41 c-35 36 -55 50 -55 38z"/>
<path d="M890 636 c0 -8 -10 -17 -22 -19 -20 -4 -19 -4 5 -6 21 -1 27 4 27 19
0 11 -2 20 -5 20 -3 0 -5 -6 -5 -14z"/>
<path d="M1675 610 c-3 -5 1 -10 9 -10 9 0 16 5 16 10 0 6 -4 10 -9 10 -6 0
-13 -4 -16 -10z"/>
<path d="M1640 600 c-13 -8 -12 -10 3 -10 9 0 17 5 17 10 0 12 -1 12 -20 0z"/>
<path d="M1351 542 c44 -34 117 -72 136 -71 12 0 8 5 -12 12 -46 18 -113 56
-120 67 -3 5 -11 10 -17 10 -6 0 0 -8 13 -18z"/>
<path d="M1614 545 c-10 -8 -14 -14 -9 -14 6 0 19 6 29 14 11 8 15 15 10 15
-6 0 -19 -7 -30 -15z"/>
<path d="M975 530 c-3 -6 1 -7 9 -4 18 7 21 14 7 14 -6 0 -13 -4 -16 -10z"/>
<path d="M940 510 c-9 -6 -10 -10 -3 -10 6 0 15 5 18 10 8 12 4 12 -15 0z"/>
<path d="M1530 495 c-14 -8 -20 -14 -14 -15 5 0 19 7 30 15 24 18 16 19 -16 0z"/>
<path d="M1148 489 c-10 -5 -18 -21 -18 -34 0 -13 -7 -31 -16 -39 -14 -15 -14
-17 1 -22 20 -8 35 11 35 46 1 24 1 24 15 6 12 -16 12 -22 2 -28 -9 -6 -9 -10
3 -17 23 -15 28 -4 19 41 -4 24 -8 46 -9 51 0 10 -11 8 -32 -4z"/>
<path d="M730 445 c41 -25 80 -45 85 -45 6 0 39 18 75 39 48 29 69 37 82 30
27 -15 34 -10 10 6 -20 15 -25 14 -64 -7 -23 -13 -48 -28 -55 -35 -31 -28 -54
-25 -122 16 -37 23 -71 41 -77 41 -5 0 25 -20 66 -45z"/>
<path d="M1040 409 c25 -24 75 -69 110 -99 36 -30 68 -59 72 -65 5 -7 8 -7 8
0 0 6 -14 21 -31 35 -39 32 -72 61 -129 114 -61 58 -86 70 -30 15z"/>
<path d="M1256 219 c10 -11 28 -25 39 -31 11 -6 5 4 -14 21 -39 35 -53 41 -25
10z"/>
</g>
</svg>
